<?xml version="1.0" encoding="UTF-8"?>
<!DOCTYPE svg PUBLIC "-//W3C//DTD SVG 1.1//EN" "http://www.w3.org/Graphics/SVG/1.1/DTD/svg11.dtd">
<svg xmlns="http://www.w3.org/2000/svg" version="1.1" width="96px" height="96px" style="shape-rendering:geometricPrecision; text-rendering:geometricPrecision; image-rendering:optimizeQuality; fill-rule:evenodd; clip-rule:evenodd" xmlns:xlink="http://www.w3.org/1999/xlink">
<g><path style="opacity:1" fill="#1e81d0" d="M 47.5,0.5 C 47.5,6.5 47.5,12.5 47.5,18.5C 37.6724,17.2098 35.0057,21.0432 39.5,30C 42.0816,29.7446 44.7482,29.578 47.5,29.5C 47.5,38.5 47.5,47.5 47.5,56.5C 41.4908,56.3338 35.4908,56.5005 29.5,57C 28.1667,58.6667 28.1667,60.3333 29.5,62C 35.4908,62.4995 41.4908,62.6662 47.5,62.5C 47.5,64.5 47.5,66.5 47.5,68.5C 44.1501,68.335 40.8168,68.5017 37.5,69C 36.1667,70.6667 36.1667,72.3333 37.5,74C 40.8168,74.4983 44.1501,74.665 47.5,74.5C 47.5,81.1667 47.5,87.8333 47.5,94.5C 39.8261,94.6664 32.1594,94.4997 24.5,94C 12.4427,91.4117 7.10939,83.9117 8.5,71.5C 8.26816,65.9919 9.1015,60.6585 11,55.5C 13.9422,49.4122 17.4422,43.7456 21.5,38.5C 20.0189,32.9109 19.0189,27.2442 18.5,21.5C 18.6016,12.5719 22.6016,6.07193 30.5,2C 36.0716,0.649315 41.7383,0.149315 47.5,0.5 Z"/></g>
<g><path style="opacity:0.991" fill="#2196f2" d="M 47.5,0.5 C 58.6106,-1.74673 67.4439,1.58661 74,10.5C 75.8697,13.9219 76.703,17.5886 76.5,21.5C 75.9811,27.2442 74.9811,32.9109 73.5,38.5C 77.5578,43.7456 81.0578,49.4122 84,55.5C 86.399,63.6723 87.0657,72.0057 86,80.5C 83.9663,88.5303 78.7996,93.0303 70.5,94C 62.8406,94.4997 55.1739,94.6664 47.5,94.5C 47.5,87.8333 47.5,81.1667 47.5,74.5C 50.8499,74.665 54.1832,74.4983 57.5,74C 58.8333,72.3333 58.8333,70.6667 57.5,69C 54.1832,68.5017 50.8499,68.335 47.5,68.5C 47.5,66.5 47.5,64.5 47.5,62.5C 53.5092,62.6662 59.5092,62.4995 65.5,62C 66.8333,60.3333 66.8333,58.6667 65.5,57C 59.5092,56.5005 53.5092,56.3338 47.5,56.5C 47.5,47.5 47.5,38.5 47.5,29.5C 50.2518,29.578 52.9184,29.7446 55.5,30C 59.9943,21.0432 57.3276,17.2098 47.5,18.5C 47.5,12.5 47.5,6.5 47.5,0.5 Z"/></g>
<g><path style="opacity:1" fill="#e1e4e7" d="M 47.5,56.5 C 47.5,58.5 47.5,60.5 47.5,62.5C 41.4908,62.6662 35.4908,62.4995 29.5,62C 28.1667,60.3333 28.1667,58.6667 29.5,57C 35.4908,56.5005 41.4908,56.3338 47.5,56.5 Z"/></g>
<g><path style="opacity:1" fill="#f6f8f9" d="M 47.5,56.5 C 53.5092,56.3338 59.5092,56.5005 65.5,57C 66.8333,58.6667 66.8333,60.3333 65.5,62C 59.5092,62.4995 53.5092,62.6662 47.5,62.5C 47.5,60.5 47.5,58.5 47.5,56.5 Z"/></g>
<g><path style="opacity:1" fill="#ecf0f3" d="M 47.5,68.5 C 50.8499,68.335 54.1832,68.5017 57.5,69C 58.8333,70.6667 58.8333,72.3333 57.5,74C 54.1832,74.4983 50.8499,74.665 47.5,74.5C 44.1501,74.665 40.8168,74.4983 37.5,74C 36.1667,72.3333 36.1667,70.6667 37.5,69C 40.8168,68.5017 44.1501,68.335 47.5,68.5 Z"/></g>
</svg>
