<?xml version="1.0" encoding="UTF-8"?>
<!DOCTYPE svg PUBLIC "-//W3C//DTD SVG 1.1//EN" "http://www.w3.org/Graphics/SVG/1.1/DTD/svg11.dtd">
<svg xmlns="http://www.w3.org/2000/svg" version="1.1" width="500px" height="500px" style="shape-rendering:geometricPrecision; text-rendering:geometricPrecision; image-rendering:optimizeQuality; fill-rule:evenodd; clip-rule:evenodd" xmlns:xlink="http://www.w3.org/1999/xlink">
<g><path style="opacity:1" fill="#fefefe" d="M -0.5,-0.5 C 166.167,-0.5 332.833,-0.5 499.5,-0.5C 499.5,166.167 499.5,332.833 499.5,499.5C 332.833,499.5 166.167,499.5 -0.5,499.5C -0.5,332.833 -0.5,166.167 -0.5,-0.5 Z"/></g>
<g><path style="opacity:1" fill="#0497b2" d="M 369.5,374.5 C 369.38,373.414 368.713,372.747 367.5,372.5C 316.331,387.133 265.664,385.633 215.5,368C 181.289,354.778 153.122,333.611 131,304.5C 126.282,297.059 122.115,289.393 118.5,281.5C 106.515,242.565 94.6819,203.565 83,164.5C 78.1016,127.463 91.935,99.9629 124.5,82C 130.929,79.1903 137.595,77.1903 144.5,76C 214.5,75.3333 284.5,75.3333 354.5,76C 393.184,84.8476 414.184,109.014 417.5,148.5C 417.329,153.864 416.829,159.198 416,164.5C 404.399,203.403 392.566,242.236 380.5,281C 388.111,313.605 384.445,344.771 369.5,374.5 Z"/></g>
<g><path style="opacity:1" fill="#fefefe" d="M 146.5,101.5 C 214.834,101.333 283.167,101.5 351.5,102C 376.474,107.475 389.808,122.975 391.5,148.5C 391.64,154.636 390.806,160.636 389,166.5C 381.333,191.5 373.667,216.5 366,241.5C 365.333,242.833 364.667,242.833 364,241.5C 333.04,195.106 289.54,173.939 233.5,178C 190.516,184.563 157.349,206.063 134,242.5C 124.341,214.518 115.674,186.185 108,157.5C 105.776,128.259 118.61,109.592 146.5,101.5 Z"/></g>
<g><path style="opacity:1" fill="#212324" d="M 226.5,218.5 C 228.776,218.756 229.943,220.09 230,222.5C 231.059,228.297 232.559,233.964 234.5,239.5C 232.53,242.317 229.863,243.817 226.5,244C 225.261,240.218 224.095,236.385 223,232.5C 221.99,237.739 220.823,242.905 219.5,248C 217.35,249.59 215.017,250.257 212.5,250C 209.628,247.463 207.128,244.63 205,241.5C 205.287,245.217 206.121,248.884 207.5,252.5C 204.917,254.622 201.917,255.955 198.5,256.5C 196.692,249.298 194.692,242.131 192.5,235C 195.213,232.97 198.213,231.304 201.5,230C 202.833,229.333 204.167,229.333 205.5,230C 207.963,233.465 210.796,236.631 214,239.5C 214.908,234.147 215.908,228.813 217,223.5C 220.388,222.105 223.555,220.438 226.5,218.5 Z"/></g>
<g><path style="opacity:1" fill="#212425" d="M 251.5,218.5 C 259.142,217.102 265.642,219.102 271,224.5C 271.49,225.793 271.657,227.127 271.5,228.5C 268.552,228.223 265.719,228.556 263,229.5C 261.309,225.787 258.475,224.621 254.5,226C 250.313,228.4 249.646,231.4 252.5,235C 257.03,236.227 261.03,235.394 264.5,232.5C 267.29,233.197 269.957,234.197 272.5,235.5C 266.071,243.202 258.071,245.369 248.5,242C 240.181,238.3 238.348,232.467 243,224.5C 245.637,222.109 248.47,220.109 251.5,218.5 Z"/></g>
<g><path style="opacity:1" fill="#212424" d="M 287.5,229.5 C 297.21,229.273 305.044,232.94 311,240.5C 313.732,246.559 312.232,251.392 306.5,255C 294.537,258.56 285.37,255.06 279,244.5C 278.333,242.167 278.333,239.833 279,237.5C 281.074,233.923 283.907,231.256 287.5,229.5 Z"/></g>
<g><path style="opacity:1" fill="#0290aa" d="M 291.5,237.5 C 294.794,237.259 297.794,238.092 300.5,240C 303.509,245.024 302.009,247.858 296,248.5C 288.018,247.388 286.518,243.721 291.5,237.5 Z"/></g>
<g><path style="opacity:1" fill="#212424" d="M 180.5,243.5 C 181.117,243.611 181.617,243.944 182,244.5C 183.078,250.557 184.411,256.557 186,262.5C 188.111,264.102 189.611,266.102 190.5,268.5C 188.897,271.28 187.063,273.946 185,276.5C 183.38,274.759 181.88,272.925 180.5,271C 174.347,270.005 168.347,268.505 162.5,266.5C 164.358,264.476 166.025,262.309 167.5,260C 171.196,260.177 174.863,260.51 178.5,261C 177.409,257.891 176.409,254.725 175.5,251.5C 177.157,248.84 178.824,246.173 180.5,243.5 Z"/></g>
<g><path style="opacity:1" fill="#212324" d="M 325.5,253.5 C 331.407,259.581 335.407,266.748 337.5,275C 336.867,281.769 333.033,285.269 326,285.5C 321.644,284.821 317.977,282.821 315,279.5C 311.697,274.031 308.197,268.698 304.5,263.5C 311.593,260.148 318.593,256.814 325.5,253.5 Z"/></g>
<g><path style="opacity:1" fill="#038fa9" d="M 323.5,264.5 C 326.773,265.829 328.773,268.329 329.5,272C 327.69,276.536 324.69,277.536 320.5,275C 319.044,273.255 317.711,271.422 316.5,269.5C 318.687,267.578 321.02,265.912 323.5,264.5 Z"/></g>
<g><path style="opacity:1" fill="#212424" d="M 159.5,283.5 C 161.843,286.424 162.176,289.757 160.5,293.5C 157.126,295.88 156.626,298.88 159,302.5C 165.029,306.299 168.196,304.632 168.5,297.5C 168.167,296.167 167.833,294.833 167.5,293.5C 166.451,296.08 165.784,298.746 165.5,301.5C 163.856,301.714 162.356,301.38 161,300.5C 160.82,298.512 160.986,296.512 161.5,294.5C 162.458,292.698 163.125,290.698 163.5,288.5C 164.219,286.236 164.552,283.903 164.5,281.5C 168.47,282.882 172.47,284.382 176.5,286C 177.136,288.394 177.136,290.894 176.5,293.5C 175.325,293.281 174.325,293.614 173.5,294.5C 174.946,299.993 174.446,305.327 172,310.5C 166.078,317.077 160.078,317.077 154,310.5C 149.472,302.878 149.472,295.211 154,287.5C 155.451,285.536 157.284,284.203 159.5,283.5 Z"/></g>
<g><path style="opacity:1" fill="#018299" d="M 118.5,281.5 C 122.115,289.393 126.282,297.059 131,304.5C 153.122,333.611 181.289,354.778 215.5,368C 265.664,385.633 316.331,387.133 367.5,372.5C 368.713,372.747 369.38,373.414 369.5,374.5C 361.69,390.817 350.69,404.65 336.5,416C 330.606,419.52 324.273,421.854 317.5,423C 271.833,423.667 226.167,423.667 180.5,423C 165.75,419.544 153.917,411.711 145,399.5C 117.553,364.374 108.719,325.041 118.5,281.5 Z"/></g>
<g><path style="opacity:1" fill="#0f6677" d="M 159.5,283.5 C 160.209,282.596 161.209,282.263 162.5,282.5C 162.205,284.735 162.539,286.735 163.5,288.5C 163.125,290.698 162.458,292.698 161.5,294.5C 161.5,293.833 161.167,293.5 160.5,293.5C 162.176,289.757 161.843,286.424 159.5,283.5 Z"/></g>
<g><path style="opacity:1" fill="#212323" d="M 322.5,292.5 C 330.5,292.5 338.5,292.5 346.5,292.5C 348.019,300.129 349.352,307.796 350.5,315.5C 348.5,315.5 346.5,315.5 344.5,315.5C 343.617,310.868 342.95,306.202 342.5,301.5C 341.5,301.5 340.5,301.5 339.5,301.5C 339.687,305.913 340.354,310.246 341.5,314.5C 339.5,314.5 337.5,314.5 335.5,314.5C 335.515,310.44 335.015,306.44 334,302.5C 332.989,301.663 331.822,301.33 330.5,301.5C 331.327,306.477 331.994,311.477 332.5,316.5C 330.5,316.5 328.5,316.5 326.5,316.5C 325.598,308.421 324.265,300.421 322.5,292.5 Z"/></g>
<g><path style="opacity:1" fill="#038da5" d="M 160.5,293.5 C 161.167,293.5 161.5,293.833 161.5,294.5C 160.986,296.512 160.82,298.512 161,300.5C 162.356,301.38 163.856,301.714 165.5,301.5C 165.784,298.746 166.451,296.08 167.5,293.5C 167.833,294.833 168.167,296.167 168.5,297.5C 168.196,304.632 165.029,306.299 159,302.5C 156.626,298.88 157.126,295.88 160.5,293.5 Z"/></g>
</svg>
