<?xml version="1.0" encoding="UTF-8"?>
<!DOCTYPE svg PUBLIC "-//W3C//DTD SVG 1.1//EN" "http://www.w3.org/Graphics/SVG/1.1/DTD/svg11.dtd">
<svg xmlns="http://www.w3.org/2000/svg" version="1.1" width="64px" height="64px" style="shape-rendering:geometricPrecision; text-rendering:geometricPrecision; image-rendering:optimizeQuality; fill-rule:evenodd; clip-rule:evenodd" xmlns:xlink="http://www.w3.org/1999/xlink">
<g><path style="opacity:0.95" fill="#359af0" d="M 24.5,1.5 C 39.367,-0.988463 49.5337,4.6782 55,18.5C 56.0171,37.6542 48.1838,51.9876 31.5,61.5C 14.8162,51.9876 6.98286,37.6542 8,18.5C 11.0191,10.3156 16.5191,4.64896 24.5,1.5 Z"/></g>
<g><path style="opacity:1" fill="#e1e6ed" d="M 26.5,7.5 C 42.178,6.67914 49.678,14.0125 49,29.5C 45.3381,40.2524 37.8381,44.7524 26.5,43C 13.7397,36.7191 10.573,27.2191 17,14.5C 19.7901,11.535 22.9567,9.20165 26.5,7.5 Z"/></g>
<g><path style="opacity:1" fill="#585f6a" d="M 31.5,13.5 C 34.9225,15.1756 38.4225,15.8423 42,15.5C 41.6699,18.866 42.0033,22.1994 43,25.5C 40.6667,28.1667 38.3333,28.1667 36,25.5C 34.5,27 33,28.5 31.5,30C 34.1667,32.3333 34.1667,34.6667 31.5,37C 28.1994,36.0033 24.866,35.6699 21.5,36C 21.6601,32.4537 21.1601,28.9537 20,25.5C 22.3333,22.8333 24.6667,22.8333 27,25.5C 28.5,24 30,22.5 31.5,21C 28.9142,18.506 28.9142,16.006 31.5,13.5 Z"/></g>
</svg>
