<?xml version="1.0" encoding="UTF-8"?>
<!DOCTYPE svg PUBLIC "-//W3C//DTD SVG 1.1//EN" "http://www.w3.org/Graphics/SVG/1.1/DTD/svg11.dtd">
<svg xmlns="http://www.w3.org/2000/svg" version="1.1" width="64px" height="64px" style="shape-rendering:geometricPrecision; text-rendering:geometricPrecision; image-rendering:optimizeQuality; fill-rule:evenodd; clip-rule:evenodd" xmlns:xlink="http://www.w3.org/1999/xlink">
<g><path style="opacity:0.743" fill="#020308" d="M 22.5,1.5 C 29.9059,1.15199 37.2392,1.65199 44.5,3C 51.6665,5.83413 54.1665,11.0008 52,18.5C 51.0296,20.2738 50.1963,22.1072 49.5,24C 56.875,33.2052 58.7084,43.3719 55,54.5C 53.7394,57.2114 51.906,59.378 49.5,61C 37.5,61.6667 25.5,61.6667 13.5,61C 8.36479,56.6395 5.69812,50.9728 5.5,44C 6.23341,36.537 8.90007,29.8703 13.5,24C 7.09489,12.4597 10.0949,4.95967 22.5,1.5 Z M 29.5,11.5 C 33.7723,11.6518 37.7723,12.6518 41.5,14.5C 40.9017,15.7946 40.4017,17.1279 40,18.5C 34.7859,18.2434 29.4525,18.5767 24,19.5C 22.8855,18.0001 22.0521,16.3334 21.5,14.5C 24.0923,13.0827 26.759,12.0827 29.5,11.5 Z"/></g>
<g><path style="opacity:1" fill="#3090e5" d="M 43.5,5.5 C 48.458,10.5696 48.7913,15.9029 44.5,21.5C 43.4138,21.38 42.7472,20.7133 42.5,19.5C 43.0243,17.6175 43.6909,15.7842 44.5,14C 44.3552,13.228 44.0219,12.5613 43.5,12C 35.4592,8.75628 27.4592,8.75628 19.5,12C 18.9781,12.5613 18.6448,13.228 18.5,14C 19.3091,15.7842 19.9757,17.6175 20.5,19.5C 20.2528,20.7133 19.5862,21.38 18.5,21.5C 14.2087,15.9029 14.542,10.5696 19.5,5.5C 27.5,2.83333 35.5,2.83333 43.5,5.5 Z M 29.5,11.5 C 26.759,12.0827 24.0923,13.0827 21.5,14.5C 22.0521,16.3334 22.8855,18.0001 24,19.5C 29.4525,18.5767 34.7859,18.2434 40,18.5C 40.4017,17.1279 40.9017,15.7946 41.5,14.5C 37.7723,12.6518 33.7723,11.6518 29.5,11.5 Z"/></g>
<g><path style="opacity:1" fill="#022fd6" d="M 19.5,5.5 C 14.542,10.5696 14.2087,15.9029 18.5,21.5C 18.189,22.4778 17.5223,23.1445 16.5,23.5C 13.5401,19.6 12.3734,15.2666 13,10.5C 14.7772,8.21008 16.9438,6.54341 19.5,5.5 Z"/></g>
<g><path style="opacity:1" fill="#0531d6" d="M 43.5,5.5 C 47.2629,6.9288 49.5963,9.59547 50.5,13.5C 49.7275,17.0468 48.3942,20.3801 46.5,23.5C 45.4777,23.1445 44.811,22.4778 44.5,21.5C 48.7913,15.9029 48.458,10.5696 43.5,5.5 Z"/></g>
<g><path style="opacity:1" fill="#3298ed" d="M 43.5,24.5 C 45.8977,27.5712 47.8977,30.9046 49.5,34.5C 48.6236,34.3691 47.9569,34.7025 47.5,35.5C 49.728,39.6652 50.0614,43.9986 48.5,48.5C 48.7472,49.7133 49.4138,50.38 50.5,50.5C 50.6716,51.4916 50.3382,52.1583 49.5,52.5C 47.9771,51.2541 46.9771,51.7541 46.5,54C 46.8361,55.0299 47.5028,55.5299 48.5,55.5C 47.5,56.8333 46.5,58.1667 45.5,59.5C 36.1667,59.5 26.8333,59.5 17.5,59.5C 8.97379,47.3353 9.64046,35.6686 19.5,24.5C 27.5165,19.2374 35.5165,19.2374 43.5,24.5 Z"/></g>
<g><path style="opacity:1" fill="#0431d6" d="M 19.5,24.5 C 9.64046,35.6686 8.97379,47.3353 17.5,59.5C 12.6101,58.1257 9.77673,54.7924 9,49.5C 6.60129,38.4938 10.1013,30.1605 19.5,24.5 Z"/></g>
<g><path style="opacity:1" fill="#0935d6" d="M 43.5,24.5 C 52.8987,30.1605 56.3987,38.4938 54,49.5C 53.2233,54.7924 50.3899,58.1257 45.5,59.5C 46.5,58.1667 47.5,56.8333 48.5,55.5C 49.1098,54.609 49.4431,53.609 49.5,52.5C 50.3382,52.1583 50.6716,51.4916 50.5,50.5C 52.0363,44.9564 51.703,39.6231 49.5,34.5C 47.8977,30.9046 45.8977,27.5712 43.5,24.5 Z"/></g>
<g><path style="opacity:1" fill="#111b2a" d="M 49.5,34.5 C 51.703,39.6231 52.0363,44.9564 50.5,50.5C 49.4138,50.38 48.7472,49.7133 48.5,48.5C 50.0614,43.9986 49.728,39.6652 47.5,35.5C 47.9569,34.7025 48.6236,34.3691 49.5,34.5 Z"/></g>
<g><path style="opacity:1" fill="#152639" d="M 49.5,52.5 C 49.4431,53.609 49.1098,54.609 48.5,55.5C 47.5028,55.5299 46.8361,55.0299 46.5,54C 46.9771,51.7541 47.9771,51.2541 49.5,52.5 Z"/></g>
</svg>
