<?xml version="1.0" encoding="UTF-8"?>
<!DOCTYPE svg PUBLIC "-//W3C//DTD SVG 1.1//EN" "http://www.w3.org/Graphics/SVG/1.1/DTD/svg11.dtd">
<svg xmlns="http://www.w3.org/2000/svg" version="1.1" width="96px" height="96px" style="shape-rendering:geometricPrecision; text-rendering:geometricPrecision; image-rendering:optimizeQuality; fill-rule:evenodd; clip-rule:evenodd" xmlns:xlink="http://www.w3.org/1999/xlink">
<g><path style="opacity:1" fill="#3299ef" d="M -0.5,-0.5 C 31.5,-0.5 63.5,-0.5 95.5,-0.5C 95.5,31.5 95.5,63.5 95.5,95.5C 63.5,95.5 31.5,95.5 -0.5,95.5C -0.5,63.5 -0.5,31.5 -0.5,-0.5 Z"/></g>
<g><path style="opacity:1" fill="#111418" d="M 39.5,20.5 C 47.5028,19.7082 55.1695,20.8749 62.5,24C 66.3593,29.2841 66.0259,34.4507 61.5,39.5C 69.7675,49.9776 69.4342,60.1443 60.5,70C 45.7473,78.3041 34.9139,74.8041 28,59.5C 26.4836,51.8863 28.3169,45.2197 33.5,39.5C 26.7412,30.2531 28.7412,23.9198 39.5,20.5 Z"/></g>
<g><path style="opacity:1" fill="#f8f8f8" d="M 42.5,36.5 C 58.6465,35.8124 66.1465,43.479 65,59.5C 58.7895,72.5215 49.2895,75.6881 36.5,69C 28.6597,61.4355 27.493,52.9355 33,43.5C 35.7901,40.535 38.9567,38.2016 42.5,36.5 Z"/></g>
<g><path style="opacity:1" fill="#eeeeee" d="M 39.5,22.5 C 46.6921,21.9448 53.6921,22.7781 60.5,25C 64.3979,29.6549 64.0645,34.1549 59.5,38.5C 58.6919,38.1924 58.0253,37.6924 57.5,37C 60.4052,33.6258 60.0719,30.6258 56.5,28C 51.2375,26.5615 45.9042,26.2282 40.5,27C 35.3005,29.1377 34.3005,32.471 37.5,37C 36.9747,37.6924 36.3081,38.1924 35.5,38.5C 29.3403,31.1373 30.6736,25.804 39.5,22.5 Z"/></g>
<g><path style="opacity:1" fill="#3193e6" d="M 41.5,28.5 C 46.2675,28.1908 50.9342,28.6908 55.5,30C 57.2826,31.0665 57.7826,32.5665 57,34.5C 50.8974,34.3822 44.7308,34.5488 38.5,35C 37.4829,33.9505 37.3162,32.7839 38,31.5C 39.1451,30.3636 40.3117,29.3636 41.5,28.5 Z"/></g>
<g><path style="opacity:1" fill="#1e1e1e" d="M 33.5,51.5 C 35.1752,54.5946 36.8419,57.9279 38.5,61.5C 36.6745,62.5709 35.5079,61.9042 35,59.5C 34.1785,56.8832 33.6785,54.2165 33.5,51.5 Z"/></g>
</svg>
