<?xml version="1.0" encoding="UTF-8"?>
<!DOCTYPE svg PUBLIC "-//W3C//DTD SVG 1.1//EN" "http://www.w3.org/Graphics/SVG/1.1/DTD/svg11.dtd">
<svg xmlns="http://www.w3.org/2000/svg" version="1.1" width="96px" height="96px" style="shape-rendering:geometricPrecision; text-rendering:geometricPrecision; image-rendering:optimizeQuality; fill-rule:evenodd; clip-rule:evenodd" xmlns:xlink="http://www.w3.org/1999/xlink">
<g><path style="opacity:0.984" fill="#359af0" d="M 37.5,-0.5 C 44.1667,-0.5 50.8333,-0.5 57.5,-0.5C 77.1667,5.16667 89.8333,17.8333 95.5,37.5C 95.5,44.1667 95.5,50.8333 95.5,57.5C 89.8333,77.1667 77.1667,89.8333 57.5,95.5C 50.8333,95.5 44.1667,95.5 37.5,95.5C 17.8333,89.8333 5.16667,77.1667 -0.5,57.5C -0.5,50.8333 -0.5,44.1667 -0.5,37.5C 5.16667,17.8333 17.8333,5.16667 37.5,-0.5 Z"/></g>
<g><path style="opacity:1" fill="#f7fafe" d="M 58.5,23.5 C 63.0719,26.5633 67.2385,30.23 71,34.5C 71.3446,36.2009 70.6779,37.5342 69,38.5C 64.8333,34.3333 60.6667,30.1667 56.5,26C 57.3805,25.2917 58.0472,24.4584 58.5,23.5 Z"/></g>
<g><path style="opacity:1" fill="#f1f8fe" d="M 49.5,23.5 C 57.0775,29.5722 64.2442,36.2389 71,43.5C 70.9827,45.5676 69.9827,47.2343 68,48.5C 60.8333,41.3333 53.6667,34.1667 46.5,27C 47.7101,25.9609 48.7101,24.7942 49.5,23.5 Z"/></g>
<g><path style="opacity:1" fill="#fdfeff" d="M 66.5,24.5 C 70.0059,25.1164 70.8392,26.7831 69,29.5C 66.7097,28.1719 65.8764,26.5053 66.5,24.5 Z"/></g>
<g><path style="opacity:1" fill="#fdfefe" d="M 53.5,37.5 C 54.9616,38.4577 56.2949,39.6244 57.5,41C 52,46.5 46.5,52 41,57.5C 39.8333,56.3333 38.6667,55.1667 37.5,54C 43.0363,48.6314 48.3697,43.1314 53.5,37.5 Z"/></g>
<g><path style="opacity:1" fill="#f2f8fd" d="M 25.5,47.5 C 26.552,47.3505 27.552,47.5172 28.5,48C 35.1667,54.6667 41.8333,61.3333 48.5,68C 47.2343,69.9827 45.5676,70.9827 43.5,71C 37,64.5 30.5,58 24,51.5C 23.7003,49.9343 24.2003,48.601 25.5,47.5 Z"/></g>
<g><path style="opacity:1" fill="#f6fafe" d="M 25.5,56.5 C 29.9645,60.4632 34.2978,64.6298 38.5,69C 37.5342,70.6779 36.2009,71.3446 34.5,71C 31,67.5 27.5,64 24,60.5C 23.7003,58.9343 24.2003,57.601 25.5,56.5 Z"/></g>
<g><path style="opacity:1" fill="#fdfeff" d="M 25.5,65.5 C 27.7914,66.5421 28.7914,68.0421 28.5,70C 25.2732,69.9444 24.2732,68.4444 25.5,65.5 Z"/></g>
</svg>
