<?xml version="1.0" standalone="no"?>
<!DOCTYPE svg PUBLIC "-//W3C//DTD SVG 20010904//EN"
 "http://www.w3.org/TR/2001/REC-SVG-20010904/DTD/svg10.dtd">
<svg version="1.0" xmlns="http://www.w3.org/2000/svg"
 width="500.000000pt" height="500.000000pt" viewBox="0 0 500.000000 500.000000"
 preserveAspectRatio="xMidYMid meet">

<g transform="translate(0.000000,500.000000) scale(0.100000,-0.100000)"
fill="#000000" stroke="none">
<path d="M1465 4229 c-77 -11 -176 -40 -170 -50 3 -4 0 -11 -6 -15 -8 -5 -9
-3 -4 6 11 19 -27 4 -99 -38 -64 -37 -219 -179 -210 -193 2 -4 -2 -11 -10 -16
-26 -14 -96 -158 -116 -238 -14 -55 -20 -110 -20 -184 1 -110 19 -218 34 -204
5 4 6 2 2 -5 -9 -15 120 -448 141 -473 7 -9 11 -18 7 -21 -5 -6 52 -213 64
-233 4 -5 7 -17 9 -25 8 -49 61 -199 68 -193 4 5 5 2 1 -4 -4 -7 3 -45 14 -84
21 -70 21 -73 4 -163 -23 -123 -23 -350 0 -471 52 -270 176 -514 351 -692 93
-94 185 -145 295 -163 86 -13 1272 -13 1360 0 83 13 193 67 260 126 58 53 159
180 214 270 80 131 149 328 176 499 19 116 12 433 -9 421 -3 -2 -7 22 -8 53
-2 45 10 97 63 270 36 117 63 220 60 228 -3 8 -2 12 2 9 5 -3 37 88 72 202 34
114 80 263 101 331 55 177 63 225 56 354 -9 192 -69 334 -200 473 -74 79 -159
140 -178 128 -7 -4 -9 -3 -6 3 7 11 -86 55 -171 80 -52 16 -149 18 -1072 19
-558 1 -1042 -2 -1075 -7z m2015 -203 c0 -2 -8 -10 -17 -17 -16 -13 -17 -12
-4 4 13 16 21 21 21 13z m-937 -36 c565 -1 1025 -5 1023 -9 -3 -4 19 -15 47
-25 105 -37 210 -129 255 -223 8 -18 20 -29 25 -26 6 3 8 2 5 -3 -3 -5 2 -40
13 -79 29 -112 23 -189 -26 -349 -8 -26 -13 -52 -10 -56 3 -5 1 -10 -4 -12 -7
-3 -164 -500 -174 -553 -2 -11 -7 -27 -10 -35 -4 -8 -11 -28 -17 -44 l-11 -30
-22 37 c-13 21 -27 34 -32 30 -4 -4 -5 -3 -2 3 15 27 -183 245 -303 333 -87
64 -155 103 -165 93 -4 -4 -5 -2 -2 4 8 14 -108 68 -124 58 -7 -4 -9 -3 -6 3
8 13 -50 36 -67 26 -6 -3 -7 -2 -3 2 18 20 -214 70 -373 80 -104 7 -304 -10
-295 -24 2 -4 -10 -5 -27 -3 -21 3 -29 1 -24 -7 5 -7 1 -9 -9 -5 -29 12 -240
-59 -229 -77 3 -5 -1 -6 -9 -3 -39 14 -389 -214 -379 -248 1 -5 -2 -7 -7 -4
-11 7 -116 -111 -115 -130 1 -7 -3 -12 -9 -11 -6 1 -35 -34 -65 -77 l-55 -79
-33 109 c-18 60 -75 250 -128 423 -53 173 -96 323 -96 333 0 10 -4 18 -8 18
-15 0 6 175 28 233 12 31 37 80 56 108 19 28 34 54 34 58 0 11 98 81 150 107
26 13 72 30 101 38 34 9 53 19 51 27 -2 9 0 10 11 1 10 -8 288 -12 1040 -12z
m-869 -1098 c3 -5 -1 -9 -9 -9 -8 0 -12 4 -9 9 3 4 7 8 9 8 2 0 6 -4 9 -8z"/>
</g>
</svg>
